<?xml version="1.0" encoding="utf-8"?>
<!DOCTYPE svg PUBLIC "-//W3C//DTD SVG 20010904//EN" "http://www.w3.org/TR/2001/REC-SVG-20010904/DTD/svg10.dtd">
<svg version="1.0" width="66.75pt" height="66.75pt" viewBox="0 0 66.75 66.75" preserveAspectRatio="xMidYMid meet" xmlns="http://www.w3.org/2000/svg">
  <g transform="translate(0,66.75)scale(.075,.075)">
    <path id="path1" d="M 277 -800 c -61 39 -138 120 -171 181 -22 39 -28 66 -33 148 -6 98 -5 102 25 164 40 80 139 178 218 214 52 23 64 25 159 21 96 -4 108 -7 160 -39 31 -19 76 -54 99 -79 42 -45 102 -137 94 -145 -2 -2 -46 5 -98 16 -110 23 -197 21 -254 -6 -49 -24 -127 -101 -152 -151 -27 -56 -26 -186 4 -278 12 -37 22 -70 22 -72 0 -12 -32 -1 -73 26 z " />
  </g>
</svg>