<?xml version="1.0" encoding="utf-8"?>
<!DOCTYPE svg PUBLIC "-//W3C//DTD SVG 20010904//EN" "http://www.w3.org/TR/2001/REC-SVG-20010904/DTD/svg10.dtd">
<svg version="1.0" width="66.75pt" height="66.75pt" viewBox="0 0 66.75 66.75" preserveAspectRatio="xMidYMid meet" xmlns="http://www.w3.org/2000/svg">
  <g transform="translate(0,66.75)scale(.075,.075)">
    <path id="path1" d="M 290 -810 c -65 35 -155 128 -190 196 -21 41 -26 66 -28 150 -3 93 -2 106 23 158 34 72 137 176 209 211 51 25 62 27 163 23 107 -3 109 -3 181 -46 49 -29 84 -59 111 -95 51 -69 76 -115 68 -123 -3 -4 -45 3 -91 15 -118 29 -198 28 -264 -5 -58 -29 -125 -99 -153 -159 -28 -61 -25 -168 7 -261 14 -41 24 -79 22 -84 -2 -5 -28 4 -58 20 z " />
    <path id="path2" d="M 273 -722 c -5 15 -8 65 -7 112 1 108 23 161 102 240 93 93 125 105 264 104 65 -1 118 3 118 8 0 18 -80 94 -127 119 -98 53 -202 58 -308 13 -54 -22 -148 -116 -180 -181 -27 -51 -30 -68 -30 -148 0 -76 4 -98 26 -145 27 -56 112 -150 136 -150 10 0 11 7 6 28 z " fill="#FFF" />
  </g>
</svg>